<svg width="400" height="240" viewBox="0 0 400 240" fill="none" xmlns="http://www.w3.org/2000/svg">
<rect width="400" height="240" fill="#E90000"/>
<rect y="65.8064" width="400" height="108.387" fill="#FAFF0A"/>
<path fill-rule="evenodd" clip-rule="evenodd" d="M72 79C69.7909 79 68 80.7909 68 83V156C68 158.209 69.7909 160 72 160H128C130.209 160 132 158.209 132 156V152.874C131.68 152.956 131.345 153 131 153C128.791 153 127 151.209 127 149C127 146.791 128.791 145 131 145C131.345 145 131.68 145.044 132 145.126V83C132 80.7909 130.209 79 128 79H72ZM85 95C83.3431 95 82 96.3431 82 98C82 99.6569 83.3431 101 85 101H115C116.657 101 118 99.6569 118 98C118 96.3431 116.657 95 115 95H85ZM74 149C74 147.343 75.3431 146 77 146H118C118.552 146 119 146.448 119 147V152C119 152.552 118.552 153 118 153H77C75.3431 153 74 151.657 74 150V149Z" fill="#E90000"/>
</svg>
